<svg id="Layer_1" xmlns="http://www.w3.org/2000/svg" viewBox="0 0 280.6 123.7"><style>.st0{fill:#b3b3b3}.st1{fill:none;stroke:#fff;stroke-width:9.4e-4}.st2{fill:#00b1e4}</style><path class="st0" d="M36.3 66.5H19.1l8.7-8.6 8.5 8.6zm-20.5 3.2h23.7l7.3 7.4H8.4l7.4-7.4zm39.4 16.7H0l6.2-6.3H49l6.2 6.3zM-.1 95.1v-5.2h55.3v5.2H-.1zm0 10.6v-4.1h55.3v4.1H-.1zm0 8.5v-2.9h55.3v2.9H-.1zm55.3 8.6v.9H-.1v-.9h55.3zM95 8.6H77.8L86.4 0 95 8.6zm-20.5 3.2h23.7l7.3 7.4H67l7.5-7.4zm39 16.8H58.2l6.4-6.3h42.7l6.2 6.3zm-55.3 9.3v-5.2h55.3v5.2H58.2zm0 10.6v-4.1h55.3v4.1H58.2zm0 8.8v-2.9h55.3v2.9H58.2zm55.3 8.3v.9H58.2v-.9h55.3zM56.9 29.3l-8.7 8.6h17.2l-8.5-8.6zM37.5 48.5h38.4l-7.3-7.4H44.9l-7.4 7.4zM78.1 51H35.4L29 57.3h55.3L78.1 51zm6.3 15.5v-5.2H29.1v5.2h55.3zm0 10.5v-4.1H29.1V77h55.3zm0 9.4v-2.9H29.1v2.9h55.3zm-55.3 7.8v.9h55.3v-.9H29.1zm27.6.5"/><path class="st1" d="M58.2 37.9h7.3m-7.3 10.6h17.7m-17.7 18h26.1m-26.1-9.2h26.1m-55.2 9.2h7.2M29.1 77h17.7M29.1 95.1h26"/><path class="st2" d="M135 54.8h6l.1 40.7h-7.5V84.2H124l-7.4 11.3h-8.3L135 54.8zm-1.4 22.7v-7.8l-6.1 7.8h6.1zm11.1 18V54.8h9.1c3 .1 6.9.7 9.9 3.6 3.3 3.1 4.3 6.7 4.3 11 0 4-1 6.9-3.8 10.2-2.8 3.3-5.2 4.5-10.4 5l-2.3.1v10.9h-6.8zm9.2-18.3c1.9 0 2.7-.3 4.4-1.6 1.8-1.5 2.1-3.6 2.1-5.9 0-2.5-.3-4.9-2.5-6.4-1.4-1-2.6-1.1-4.3-1.1h-2.2v15.1h2.5zm55.9 6.7c-3.1 7.4-11 12.1-18.9 12.1-11.7 0-21.1-9.8-21.1-21.4 0-11.5 9.5-21.1 20.9-21.1 8.2 0 16.2 4.7 19.4 12.4h-8.6c-2.5-3.1-6.6-5.1-10.7-5.1-7.4 0-13.4 6.5-13.4 14.1 0 7.2 6.2 13.8 13.5 13.8 4 0 7.5-1.8 10.3-4.7h8.6zm2.4-29.7h7.6v16.3h14.6V54.2h7.6V95h-7.6V77.9h-14.6V95h-7.6V54.2zm59.5 42.6h-4.5l-1-1.5h-18.4V54.5h6.1l26.8 40.8h-9.9l.9 1.5zm-4.9-8.3h1.6l-13.9-21.1v21.1h7.9l-1.2-1.8h4.4l1.2 1.8z"/><path class="st1" d="M29.1 86.4h26.1"/><path class="st2" d="M65.5 37.9h-7.3v-5.2h2.2zm10.4 10.6H58.2v-4.1h13.7zm8.4 8.8H58.2v-2.9h23.2zm-26.1 8.3h26.1v.9H58.2zm-21.9.9h-7.2v-5.2h2.1zM46.7 77H29.1v-4.1h13.6zm8.4 9.4h-26v-2.9h23.2zm-26 7.8h26.1v.9H29.1z"/></svg>