<?xml version="1.0" encoding="utf-8"?>
<!-- Generator: Adobe Illustrator 23.0.0, SVG Export Plug-In . SVG Version: 6.00 Build 0)  -->
<svg version="1.1" id="Layer_1" xmlns="http://www.w3.org/2000/svg" xmlns:xlink="http://www.w3.org/1999/xlink" x="0px" y="0px"
	 viewBox="0 0 248 73" style="enable-background:new 0 0 248 73;" xml:space="preserve">
<style type="text/css">
	.st0{fill-rule:evenodd;clip-rule:evenodd;fill:#005A7D;}
	.st1{fill:#005A7D;}
</style>
<title>ccq_logo</title>
<desc>Created with Sketch.</desc>
<g id="ccq_logo-01" transform="translate(12.000000, 16.000000)">
	<g id="logo" transform="translate(89.575852, 0.000000)">
		<g id="Group">
			<path id="Path" class="st0" d="M-3.1-6.3c-0.5,0.8-1.1,1.4-1.8,1.8s-1.5,0.6-2.2,0.6c-0.5,0-1.1-0.1-1.6-0.2
				c-0.5-0.2-1-0.4-1.4-0.7c-0.4-0.3-0.8-0.7-1-1.2s-0.4-1-0.4-1.7v-4.2c0-0.6,0.1-1.2,0.4-1.7s0.6-0.9,1-1.2s0.9-0.6,1.4-0.7
				c0.5-0.2,1.1-0.2,1.7-0.2c0.4,0,0.8,0,1.1,0.1c0.4,0.1,0.8,0.3,1.1,0.5c0.4,0.2,0.7,0.5,1,0.8s0.5,0.7,0.7,1.1l-1.9,1
				c-0.2-0.4-0.5-0.7-1-0.9c-0.4-0.2-0.8-0.3-1.3-0.3c-0.3,0-0.5,0-0.7,0.1c-0.2,0.1-0.4,0.2-0.6,0.3c-0.2,0.1-0.3,0.3-0.4,0.5
				s-0.2,0.4-0.2,0.6v4.2c0,0.2,0.1,0.4,0.2,0.6s0.2,0.3,0.4,0.5C-8.4-6.5-8.2-6.4-8-6.3c0.2,0.1,0.5,0.1,0.7,0.1
				c0.4,0,0.9-0.1,1.3-0.3c0.4-0.2,0.7-0.5,1-1L-3.1-6.3z"/>
			<path id="Shape" class="st1" d="M-2.2-11.9c0-0.6,0.1-1.2,0.4-1.7s0.6-0.9,1.1-1.2c0.4-0.3,0.9-0.6,1.5-0.7
				c0.6-0.2,1.1-0.2,1.7-0.2s1.1,0.1,1.7,0.2c0.6,0.2,1.1,0.4,1.5,0.7s0.8,0.7,1.1,1.2c0.3,0.5,0.4,1,0.4,1.7v4.2
				C7.2-7.1,7-6.5,6.8-6C6.5-5.6,6.1-5.2,5.7-4.9C5.3-4.5,4.8-4.3,4.2-4.1C3.6-4,3.1-3.9,2.5-3.9S1.3-4,0.8-4.1s-1.1-0.4-1.5-0.7
				C-1.2-5.2-1.5-5.6-1.8-6s-0.4-1-0.4-1.7V-11.9z M0.2-7.7c0,0.3,0.1,0.5,0.2,0.6c0.1,0.2,0.3,0.3,0.5,0.4s0.5,0.2,0.7,0.3
				c0.3,0.1,0.6,0.1,0.9,0.1s0.6,0,0.8-0.1C3.6-6.5,3.8-6.6,4-6.7C4.2-6.8,4.4-7,4.5-7.1s0.2-0.4,0.2-0.6v-4.2
				c0-0.3-0.1-0.5-0.2-0.7S4.3-12.8,4-13c-0.2-0.1-0.5-0.2-0.7-0.3c-0.3-0.1-0.6-0.1-0.9-0.1s-0.6,0-0.8,0.1
				c-0.3,0.1-0.5,0.2-0.7,0.3s-0.4,0.3-0.5,0.5s-0.2,0.4-0.2,0.6L0.2-7.7L0.2-7.7z"/>
			<polygon class="st0" points="15,-5.6 13.3,-5.6 11.7,-9.3 11.1,-10.8 11,-10.8 11.2,-8.6 11.2,-4.1 8.9,-4.1 8.9,-15.5 
				11.3,-15.5 14.1,-8.9 16.9,-15.5 19.4,-15.5 19.4,-4.1 17,-4.1 17,-8.6 17.3,-10.8 17.2,-10.8 16.6,-9.2 			"/>
			<polygon class="st0" points="27.6,-5.6 25.8,-5.6 24.3,-9.3 23.7,-10.8 23.5,-10.8 23.8,-8.6 23.8,-4.1 21.4,-4.1 21.4,-15.5 
				23.9,-15.5 26.7,-8.9 29.5,-15.5 32,-15.5 32,-4.1 29.6,-4.1 29.6,-8.6 29.9,-10.8 29.7,-10.8 29.2,-9.2 			"/>
			<rect id="Rectangle" x="34" y="-15.5" class="st0" width="2.4" height="11.5"/>
			<path class="st0" d="M39.6-7.5c0.3,0.4,0.6,0.7,1.1,0.9c0.5,0.2,0.9,0.3,1.3,0.3c0.4,0,0.8-0.1,1.2-0.3c0.3-0.2,0.5-0.5,0.5-0.9
				c0-0.3,0-0.4-0.2-0.6c-0.1-0.2-0.3-0.3-0.5-0.4s-0.4-0.2-0.7-0.2c-0.3-0.1-0.6-0.1-0.8-0.1C41-8.9,40.6-9,40.2-9.1
				c-0.4-0.1-0.8-0.4-1.2-0.7s-0.6-0.6-0.8-1.1s-0.3-1-0.3-1.6c0-0.5,0.2-1,0.4-1.4c0.3-0.4,0.6-0.8,0.9-1c0.4-0.3,0.8-0.5,1.3-0.6
				s1-0.2,1.5-0.2c0.7,0,1.5,0.2,2.1,0.5s1.3,0.8,1.7,1.6l-2,1.3c-0.3-0.4-0.5-0.7-0.9-0.8c-0.3-0.2-0.7-0.3-1-0.3
				c-0.2,0-0.4,0-0.6,0.1s-0.4,0.1-0.5,0.2s-0.3,0.2-0.4,0.4c-0.1,0.1-0.1,0.3-0.2,0.5l0,0c0,0.2,0.1,0.4,0.2,0.6
				c0.1,0.1,0.3,0.3,0.4,0.3c0.2,0.1,0.4,0.2,0.6,0.2c0.2,0,0.5,0.1,0.7,0.2c0.5,0.1,1,0.2,1.4,0.4c0.5,0.1,0.9,0.4,1.2,0.7
				c0.4,0.3,0.6,0.7,0.9,1.1c0.2,0.4,0.3,1,0.3,1.7c-0.1,0.5-0.2,1-0.5,1.4s-0.6,0.8-1,1C44-4.3,43.5-4.1,43-4s-1,0.2-1.5,0.2
				c-0.7,0-1.5-0.2-2.2-0.5c-0.7-0.4-1.3-0.9-1.8-1.6L39.6-7.5z"/>
			<path class="st0" d="M48.7-7.5c0.3,0.4,0.6,0.7,1.1,0.9c0.5,0.2,0.9,0.3,1.3,0.3c0.4,0,0.8-0.1,1.2-0.3c0.3-0.2,0.5-0.5,0.5-0.9
				c0-0.3,0-0.4-0.2-0.6c-0.1-0.2-0.3-0.3-0.5-0.4s-0.4-0.2-0.7-0.2c-0.3-0.1-0.6-0.1-0.8-0.1c-0.5-0.1-0.9-0.2-1.3-0.3
				c-0.4-0.1-0.8-0.4-1.2-0.7c-0.3-0.3-0.6-0.6-0.8-1.1s-0.3-1-0.3-1.6c0-0.5,0.2-1,0.4-1.4c0.3-0.4,0.6-0.8,0.9-1
				c0.4-0.3,0.8-0.5,1.3-0.6s1-0.2,1.5-0.2c0.7,0,1.4,0.2,2.1,0.5c0.7,0.3,1.3,0.8,1.7,1.6l-2,1.3c-0.3-0.4-0.5-0.7-0.9-0.8
				c-0.3-0.2-0.7-0.3-1-0.3c-0.2,0-0.4,0-0.6,0.1s-0.4,0.1-0.5,0.2s-0.3,0.2-0.4,0.4c-0.1,0.1-0.1,0.3-0.2,0.5l0,0
				c0,0.2,0.1,0.4,0.2,0.6c0.1,0.1,0.3,0.3,0.4,0.3c0.2,0.1,0.4,0.2,0.6,0.2c0.2,0,0.5,0.1,0.7,0.2c0.5,0.1,1,0.2,1.4,0.4
				c0.5,0.1,0.9,0.4,1.2,0.7c0.4,0.3,0.6,0.7,0.9,1.1S55-7.7,55-7c-0.1,0.5-0.2,1-0.5,1.4s-0.6,0.8-1,1c-0.4,0.3-0.9,0.5-1.4,0.6
				s-1,0.2-1.5,0.2c-0.7,0-1.5-0.2-2.2-0.5c-0.7-0.4-1.3-0.9-1.8-1.6L48.7-7.5z"/>
			<rect x="56.7" y="-15.5" class="st0" width="2.4" height="11.5"/>
			<path class="st1" d="M60.8-11.9c0-0.6,0.1-1.2,0.4-1.7c0.3-0.5,0.6-0.9,1.1-1.2c0.4-0.3,0.9-0.6,1.5-0.7c0.6-0.2,1.1-0.2,1.7-0.2
				s1.1,0.1,1.7,0.2s1.1,0.4,1.5,0.7s0.8,0.7,1.1,1.2c0.3,0.5,0.4,1,0.4,1.7v4.2c0,0.6-0.1,1.2-0.4,1.7s-0.6,0.9-1.1,1.2
				c-0.4,0.3-0.9,0.6-1.5,0.7S66-3.9,65.5-3.9S64.3-4,63.7-4.1c-0.6-0.2-1.1-0.4-1.5-0.7c-0.4-0.3-0.8-0.7-1.1-1.2s-0.4-1-0.4-1.7
				L60.8-11.9L60.8-11.9z M63.1-7.7c0,0.3,0.1,0.5,0.2,0.6c0.1,0.2,0.3,0.3,0.5,0.4s0.5,0.2,0.7,0.3c0.3,0.1,0.6,0.1,0.9,0.1
				s0.6,0,0.8-0.1s0.5-0.2,0.7-0.3c0.2-0.1,0.4-0.3,0.5-0.4c0.1-0.2,0.2-0.4,0.2-0.6v-4.2c0-0.3-0.1-0.5-0.2-0.7s-0.3-0.3-0.5-0.5
				c-0.2-0.1-0.5-0.2-0.7-0.3c-0.3-0.1-0.6-0.1-0.9-0.1s-0.6,0-0.8,0.1c-0.3,0.1-0.5,0.2-0.7,0.3s-0.4,0.3-0.5,0.5s-0.2,0.4-0.2,0.6
				V-7.7L63.1-7.7z"/>
			<path class="st0" d="M78.8-7.2c0-0.2-0.1-0.4-0.1-0.7c0-0.3-0.1-0.5-0.1-0.7s-0.1-0.5-0.1-0.7s0-0.3,0-0.4v-5.9h2.4v11.5h-2.5
				l-3.5-6l-0.7-1.6H74l0.3,2v5.6h-2.4v-11.5h2.3l3.6,6.3l0.8,2.1L78.8-7.2z"/>
			<path class="st1" d="M-7.4,0.2c0.6,0,1.1,0.1,1.6,0.2s1,0.4,1.4,0.7s0.7,0.7,1,1.2C-3.2,2.8-3,3.3-3,4v4c0,0.7-0.1,1.2-0.4,1.7
				c-0.2,0.5-0.6,0.8-1,1.1s-0.9,0.5-1.4,0.7c-0.5,0.1-1.1,0.2-1.6,0.2h-4.2V0.2H-7.4z M-7.4,9.2c0.3,0,0.5,0,0.7-0.1
				c0.2,0,0.4-0.1,0.6-0.2c0.2-0.1,0.3-0.2,0.4-0.4C-5.5,8.4-5.5,8.2-5.5,8V3.9c0-0.2-0.1-0.4-0.2-0.6c0-0.2-0.2-0.3-0.4-0.4
				s-0.4-0.2-0.6-0.2s-0.5-0.1-0.7-0.1h-1.8v6.7L-7.4,9.2L-7.4,9.2z"/>
			<polygon class="st0" points="1,4.7 6,4.7 6,7.1 1,7.1 1,9.3 6.4,9.3 6.4,11.6 -1.4,11.6 -1.4,0.1 6.4,0.1 6.4,2.5 1,2.5 			"/>
			<polygon class="st0" points="11.3,0.2 13.6,0.2 13.6,9.2 18.6,9.2 18.6,11.6 11.3,11.6 			"/>
			<path class="st1" d="M29.5,11.6H27L26,9h-3.4l-1,2.6h-2.5l4-11.5h2.3L29.5,11.6z M23.2,6.8h2.2l-0.7-2.5l-0.4-1.6h-0.1l-0.4,1.7
				L23.2,6.8z"/>
			<path class="st0" d="M41.5,9.4c-0.5,0.8-1.1,1.4-1.8,1.8c-0.7,0.4-1.5,0.6-2.2,0.6c-0.5,0-1.1-0.1-1.6-0.2s-1-0.4-1.4-0.7
				s-0.8-0.7-1-1.2s-0.4-1-0.4-1.7V3.8c0-0.6,0.1-1.2,0.4-1.7s0.6-0.9,1-1.2s0.9-0.6,1.4-0.7c0.4-0.1,1-0.2,1.5-0.2
				c0.4,0,0.8,0,1.1,0.1s0.8,0.3,1.1,0.5s0.7,0.5,1,0.8s0.5,0.7,0.7,1.1l-1.9,1c-0.2-0.4-0.5-0.7-1-0.9c-0.4-0.2-0.8-0.3-1.3-0.3
				c-0.3,0-0.5,0-0.7,0.1S36,2.6,35.8,2.7c-0.2,0.1-0.3,0.3-0.4,0.5s-0.2,0.4-0.2,0.6V8c0,0.2,0.1,0.4,0.2,0.6s0.2,0.3,0.4,0.5
				c0.2,0.1,0.4,0.2,0.6,0.3c0.2,0.1,0.5,0.1,0.7,0.1c0.4,0,0.9-0.1,1.3-0.3c0.4-0.2,0.7-0.5,1-1L41.5,9.4z"/>
			<path class="st1" d="M42.4,3.8c0-0.6,0.1-1.2,0.4-1.7c0.3-0.5,0.6-0.9,1.1-1.2c0.4-0.3,0.9-0.6,1.5-0.7C45.9,0.1,46.5,0,47,0
				c0.6,0,1.1,0.1,1.7,0.2c0.6,0.2,1.1,0.4,1.5,0.7s0.8,0.7,1.1,1.2s0.4,1,0.4,1.7V8c0,0.6-0.1,1.2-0.4,1.7
				c-0.3,0.5-0.6,0.9-1.1,1.2s-0.9,0.6-1.5,0.7c-0.6,0.2-1.1,0.2-1.7,0.2c-0.6,0-1.1-0.1-1.7-0.2c-0.6-0.2-1.1-0.4-1.5-0.7
				s-0.8-0.7-1.1-1.2s-0.4-1-0.4-1.7V3.8H42.4z M44.7,8c0,0.3,0.1,0.5,0.2,0.6s0.3,0.3,0.5,0.4c0.2,0.1,0.5,0.2,0.7,0.3
				c0.3,0.1,0.6,0.1,0.9,0.1s0.6,0,0.8-0.1c0.3-0.1,0.5-0.2,0.7-0.3c0.3,0,0.5-0.2,0.6-0.4s0.2-0.4,0.2-0.6V3.8
				c0-0.3-0.1-0.5-0.2-0.7C49,3,48.8,2.9,48.6,2.7c-0.2-0.1-0.5-0.2-0.7-0.3c-0.3-0.1-0.6-0.1-0.9-0.1c-0.3,0-0.6,0-0.8,0.1
				c-0.3,0.1-0.5,0.2-0.7,0.3S45,3,44.9,3.2s-0.2,0.4-0.2,0.6V8L44.7,8z"/>
			<path class="st0" d="M60.2,8.5c0-0.2-0.1-0.4-0.1-0.7S60,7.3,60,7.1s-0.1-0.5-0.1-0.7s0-0.3,0-0.4V0.2h2.4v11.5h-2.5l-3.5-6
				l-0.7-1.6h-0.2l0.3,2v5.6h-2.4V0.2h2.3l3.6,6.3l0.8,2H60.2z"/>
			<path class="st0" d="M65.3,8.2c0.3,0.4,0.6,0.7,1.1,0.9s0.9,0.3,1.3,0.3s0.8-0.1,1.2-0.3c0.3-0.2,0.5-0.5,0.5-0.9
				c0-0.3,0-0.4-0.2-0.6c-0.1-0.2-0.3-0.3-0.5-0.4S68.3,7,68,7c-0.2,0-0.5,0-0.8-0.1c-0.5-0.1-0.9-0.2-1.3-0.3
				c-0.4-0.1-0.8-0.4-1.2-0.7c-0.3-0.3-0.6-0.6-0.8-1.1c-0.2-0.4-0.3-1-0.3-1.6c0-0.5,0.2-1,0.4-1.4c0.3-0.4,0.6-0.8,0.9-1
				c0.4-0.3,0.8-0.5,1.3-0.6C66.8,0,67.3,0,67.8,0c0.7,0,1.4,0.2,2.1,0.5s1.3,0.8,1.7,1.6l-2,1.3c-0.3-0.4-0.5-0.7-0.9-0.8
				c-0.3-0.2-0.7-0.3-1-0.3c-0.2,0-0.4,0-0.6,0.1c-0.2,0-0.4,0.1-0.5,0.2S66.3,2.8,66.2,3S66,3.2,66,3.4l0,0c0,0.2,0.1,0.4,0.2,0.6
				c0.1,0.1,0.3,0.3,0.4,0.3c0.2,0.1,0.4,0.2,0.6,0.2s0.5,0.1,0.7,0.2c0.5,0.1,1,0.2,1.4,0.4c0.5,0.1,0.9,0.4,1.2,0.7
				c0.4,0.3,0.6,0.7,0.9,1.1c0.2,0.4,0.3,1,0.3,1.7c-0.1,0.5-0.2,1-0.5,1.4s-0.6,0.8-1,1c-0.4,0.3-0.9,0.5-1.4,0.6s-1,0.2-1.5,0.2
				c-0.7,0-1.5-0.2-2.2-0.5c-0.7-0.4-1.3-0.9-1.8-1.6L65.3,8.2z"/>
			<polygon class="st0" points="78.1,2.5 78.1,11.6 75.7,11.6 75.7,2.5 72.5,2.5 72.5,0.1 81.4,0.1 81.4,2.5 			"/>
			<path class="st1" d="M85.9,7.4H85v4.2h-2.4V0.2h4.5c0.6,0,1.1,0.1,1.6,0.2s1,0.3,1.3,0.6c0.4,0.3,0.6,0.7,0.9,1.1
				c0.2,0.5,0.3,1,0.3,1.7c0,1.1-0.2,1.9-0.7,2.4s-1.1,0.9-1.9,1.1l3.4,4.4h-2.9L85.9,7.4z M87.2,5.3c0.5,0,0.9-0.1,1.3-0.3
				C88.8,4.8,89,4.4,89,3.9s-0.2-0.8-0.5-1s-0.7-0.3-1.2-0.3H85v2.7H87.2z"/>
			<path class="st0" d="M95.1,7.9c0,0.3,0.1,0.5,0.2,0.7c0.1,0.2,0.3,0.4,0.5,0.5s0.4,0.2,0.7,0.3c0.3,0.1,0.5,0.1,0.8,0.1
				s0.5,0,0.8-0.1s0.5-0.2,0.7-0.3s0.4-0.3,0.5-0.5s0.2-0.4,0.2-0.7V0.2h2.4v7.7c0,0.7-0.1,1.2-0.4,1.7s-0.6,0.9-1,1.2
				s-0.9,0.6-1.4,0.7c-0.5,0.2-1.1,0.2-1.7,0.2s-1.1-0.1-1.7-0.2c-0.5-0.2-1-0.4-1.4-0.7s-0.8-0.7-1-1.2c-0.3-0.5-0.4-1.1-0.4-1.7
				V0.2h2.4L95.1,7.9L95.1,7.9z"/>
			<path class="st0" d="M111.8,9.4c-0.5,0.8-1.1,1.4-1.8,1.8c-0.7,0.4-1.5,0.6-2.2,0.6c-0.5,0-1.1-0.1-1.6-0.2s-1-0.4-1.4-0.7
				s-0.8-0.7-1-1.2c-0.3-0.5-0.4-1-0.4-1.7V3.8c0-0.6,0.1-1.2,0.4-1.7s0.6-0.9,1-1.2s0.9-0.6,1.4-0.7c0.5-0.2,1.1-0.2,1.7-0.2
				c0.4,0,0.8,0,1.1,0.1c0.4,0.1,0.8,0.3,1.1,0.5c0.4,0.2,0.7,0.5,1,0.8s0.5,0.7,0.7,1.1l-1.9,1c-0.2-0.4-0.5-0.7-1-0.9
				c-0.4-0.2-0.8-0.3-1.3-0.3c-0.3,0-0.5,0-0.7,0.1s-0.4,0.2-0.6,0.3S106,3,105.9,3.2s-0.2,0.4-0.2,0.6V8c0,0.2,0.1,0.4,0.2,0.6
				s0.2,0.3,0.4,0.5s0.4,0.2,0.6,0.3s0.5,0.1,0.7,0.1c0.4,0,0.9-0.1,1.3-0.3s0.7-0.5,1-1L111.8,9.4z"/>
			<polygon class="st0" points="117.8,2.5 117.8,11.6 115.4,11.6 115.4,2.5 112.2,2.5 112.2,0.1 121.1,0.1 121.1,2.5 			"/>
			<rect x="122.4" y="0.2" class="st0" width="2.4" height="11.5"/>
			<path class="st1" d="M126.3,3.8c0-0.6,0.1-1.2,0.4-1.7s0.6-0.9,1.1-1.2c0.4-0.3,0.9-0.6,1.5-0.7C129.9,0,130.4,0,131,0
				s1.1,0.1,1.7,0.2c0.6,0.2,1.1,0.4,1.5,0.7s0.8,0.7,1.1,1.2s0.4,1,0.4,1.7V8c0,0.6-0.1,1.2-0.4,1.7c-0.3,0.5-0.6,0.9-1.1,1.2
				s-0.9,0.6-1.5,0.7c-0.6,0.2-1.1,0.2-1.7,0.2s-1.2-0.1-1.7-0.2c-0.6-0.2-1.1-0.4-1.5-0.7c-0.4-0.3-0.8-0.7-1.1-1.2
				c-0.3-0.5-0.4-1-0.4-1.7V3.8z M128.7,8c0,0.3,0.1,0.5,0.2,0.6c0.1,0.2,0.3,0.3,0.5,0.4c0.2,0.1,0.5,0.2,0.7,0.3
				c0.3,0.1,0.6,0.1,0.9,0.1c0.3,0,0.6,0,0.8-0.1c0.3-0.1,0.5-0.2,0.7-0.3s0.4-0.3,0.5-0.4c0.1-0.2,0.2-0.4,0.2-0.6V3.8
				c0-0.3-0.1-0.5-0.2-0.7c-0.1-0.2-0.3-0.3-0.5-0.5c-0.2-0.1-0.5-0.2-0.7-0.3c-0.3-0.1-0.6-0.1-0.9-0.1c-0.3,0-0.6,0-0.8,0.1
				c-0.3,0.1-0.5,0.2-0.7,0.3S129,3,128.9,3.2s-0.2,0.4-0.2,0.6V8L128.7,8z"/>
			<path class="st0" d="M144.2,8.5c0-0.2-0.1-0.4-0.1-0.7S144,7.3,144,7.1s-0.1-0.5-0.1-0.7s0-0.3,0-0.4V0.2h2.4v11.5h-2.5l-3.5-6
				l-0.7-1.6h-0.1l0.3,2v5.6h-2.4V0.2h2.3l3.6,6.3l0.8,2.1L144.2,8.5z"/>
			<path class="st1" d="M-7.4,15.9c0.6,0,1.1,0.1,1.6,0.2c0.5,0.1,1,0.4,1.4,0.7c0.4,0.3,0.7,0.7,1,1.2c0.2,0.5,0.4,1,0.4,1.7v4.1
				c0,0.7-0.1,1.2-0.4,1.7c-0.2,0.5-0.6,0.8-1,1.1c-0.4,0.3-0.9,0.5-1.4,0.7c-0.5,0.1-1.1,0.2-1.6,0.2h-4.2V15.9H-7.4z M-7.4,24.9
				c0.3,0,0.5,0,0.7-0.1s0.4-0.1,0.6-0.2s0.3-0.2,0.4-0.4c0.1-0.2,0.2-0.4,0.2-0.6v-4.1c0-0.2-0.1-0.4-0.2-0.6s-0.3-0.3-0.4-0.4
				c-0.2-0.1-0.4-0.2-0.6-0.2s-0.5-0.1-0.7-0.1h-1.8v6.7L-7.4,24.9L-7.4,24.9z"/>
			<path class="st0" d="M0.9,23.6c0,0.3,0.1,0.5,0.2,0.7s0.3,0.4,0.5,0.5C1.8,24.9,2,25,2.3,25.1s0.5,0.1,0.8,0.1s0.5,0,0.8-0.1
				s0.5-0.2,0.7-0.3c0.2-0.1,0.4-0.3,0.5-0.5s0.2-0.4,0.2-0.7v-7.7h2.4v7.7c0,0.7-0.1,1.2-0.4,1.7s-0.6,0.9-1,1.2
				c-0.4,0.3-0.9,0.6-1.4,0.7c-0.5,0.2-1.1,0.2-1.7,0.2s-1.1-0.1-1.7-0.2c-0.5-0.2-1-0.4-1.4-0.7c-0.4-0.3-0.8-0.7-1-1.2
				c-0.3-0.5-0.4-1.1-0.4-1.7v-7.7H1L0.9,23.6L0.9,23.6z"/>
			<path class="st1" d="M19.8,26.8c-0.4,0.3-0.9,0.4-1.4,0.5s-1,0.2-1.5,0.2c-0.6,0-1.2-0.1-1.7-0.2c-0.6-0.2-1.1-0.4-1.5-0.7
				c-0.4-0.3-0.8-0.7-1.1-1.2s-0.4-1-0.4-1.7v-4.2c0-0.6,0.1-1.2,0.4-1.7c0.3-0.5,0.6-0.9,1.1-1.2c0.4-0.3,0.9-0.6,1.5-0.7
				c0.6-0.2,1.1-0.2,1.7-0.2s1.1,0.1,1.7,0.2c0.6,0.2,1.1,0.4,1.5,0.7s0.8,0.7,1.1,1.2c0.3,0.5,0.4,1,0.4,1.7v4.2
				c0,0.4-0.1,0.8-0.2,1.1s-0.3,0.7-0.5,0.9l1,1.1l-1.2,1L19.8,26.8z M16.9,25.1c0.3,0,0.5,0,0.7,0s0.4,0,0.6-0.1l-1-1.1l1.2-1
				l0.9,1v-0.2v-4.2c0-0.3-0.1-0.5-0.2-0.7s-0.3-0.3-0.5-0.5c-0.2-0.1-0.5-0.2-0.7-0.3c-0.3-0.1-0.6-0.1-0.9-0.1s-0.6,0-0.8,0.1
				s-0.5,0.2-0.7,0.3c-0.2,0.1-0.4,0.3-0.5,0.5s-0.2,0.4-0.2,0.6v4.2c0,0.3,0.1,0.5,0.2,0.6c0.1,0.2,0.3,0.3,0.5,0.5
				c0.2,0.1,0.5,0.2,0.7,0.3S16.6,25.1,16.9,25.1z"/>
			<path class="st0" d="M25.5,23.6c0,0.3,0.1,0.5,0.2,0.7s0.3,0.4,0.5,0.5s0.4,0.2,0.7,0.3c0.3,0.1,0.5,0.1,0.8,0.1s0.5,0,0.8-0.1
				s0.5-0.2,0.7-0.3c0.2-0.1,0.4-0.3,0.5-0.5s0.2-0.4,0.2-0.7v-7.7h2.4v7.7c0,0.7-0.1,1.2-0.4,1.7c-0.3,0.5-0.6,0.9-1,1.2
				c-0.4,0.3-0.9,0.6-1.4,0.7c-0.5,0.2-1.1,0.2-1.7,0.2s-1.1-0.1-1.7-0.2c-0.5-0.2-1-0.4-1.4-0.7c-0.4-0.3-0.8-0.7-1-1.2
				c-0.3-0.5-0.4-1.1-0.4-1.7v-7.7h2.4L25.5,23.6L25.5,23.6z"/>
			<polygon class="st0" points="36.3,20.4 41.2,20.4 41.2,22.7 36.3,22.7 36.3,25 41.6,25 41.6,27.3 33.9,27.3 33.9,15.8 41.6,15.8 
				41.6,18.2 36.3,18.2 			"/>
			<path class="st1" d="M51.4,19.2c0,0.2,0,0.3-0.1,0.5c0,0.2-0.1,0.4-0.2,0.6c-0.1,0.2-0.2,0.4-0.3,0.5c-0.1,0.2-0.3,0.3-0.5,0.4
				c0.4,0.2,0.6,0.4,0.9,0.6c0.2,0.3,0.4,0.5,0.5,0.8s0.2,0.6,0.2,0.9s0,0.6,0,0.9c-0.1,0.4-0.2,0.8-0.3,1.1
				c-0.2,0.4-0.4,0.7-0.7,0.9c-0.3,0.3-0.7,0.5-1.2,0.6c-0.5,0.2-1,0.2-1.7,0.2h-4.6V15.8h4.5c0.5,0,1,0.1,1.4,0.2s0.8,0.4,1.1,0.6
				c0.3,0.3,0.6,0.6,0.8,1.1C51.3,18.2,51.4,18.7,51.4,19.2z M47.8,20.3c0.4,0,0.7-0.1,0.9-0.3c0.2-0.2,0.3-0.5,0.4-0.7
				c0-0.3-0.1-0.5-0.3-0.7s-0.5-0.3-1-0.3h-2.2v2.2h2.2V20.3z M47.8,25c0.4,0,0.7-0.1,0.9-0.2s0.4-0.3,0.6-0.5s0.2-0.4,0.2-0.6
				s-0.1-0.4-0.2-0.6c-0.1-0.2-0.3-0.4-0.6-0.5s-0.6-0.2-0.9-0.2h-2.2V25H47.8z"/>
			<polygon class="st0" points="55.7,20.4 60.6,20.4 60.6,22.7 55.7,22.7 55.7,25 61,25 61,27.3 53.3,27.3 53.3,15.8 61,15.8 
				61,18.2 55.7,18.2 			"/>
			<path class="st0" d="M70.9,25.1c-0.5,0.8-1.1,1.4-1.8,1.8c-0.7,0.4-1.5,0.6-2.2,0.6c-0.5,0-1.1-0.1-1.6-0.2
				c-0.5-0.2-1-0.4-1.4-0.7c-0.4-0.3-0.8-0.7-1-1.2c-0.3-0.5-0.4-1-0.4-1.7v-4.2c0-0.6,0.1-1.2,0.4-1.7c0.3-0.5,0.6-0.9,1-1.2
				c0.4-0.3,0.9-0.6,1.4-0.7c0.5-0.2,1.1-0.2,1.7-0.2c0.4,0,0.8,0,1.1,0.1c0.4,0.1,0.8,0.3,1.1,0.5c0.4,0.2,0.7,0.5,1,0.8
				s0.5,0.7,0.7,1.1l-1.9,1c-0.2-0.4-0.5-0.7-1-0.9c-0.4-0.2-0.8-0.3-1.3-0.3c-0.3,0-0.5,0-0.7,0.1s-0.4,0.2-0.6,0.3
				s-0.3,0.3-0.4,0.5s-0.2,0.4-0.2,0.6v4.2c0,0.2,0.1,0.4,0.2,0.6s0.2,0.3,0.4,0.5s0.4,0.2,0.6,0.3c0.2,0.1,0.5,0.1,0.7,0.1
				c0.4,0,0.9-0.1,1.3-0.3c0.4-0.2,0.7-0.5,1-1L70.9,25.1z"/>
			<polygon class="st0" points="37.7,14 36.4,15.9 38.6,15.9 40.3,14 			"/>
			<polygon class="st0" points="22.2,26.7 18.5,22.7 17.1,24 20.8,27.9 			"/>
		</g>
	</g>
	<g id="logo_building_parts">
		<polygon class="st0" points="43.3,56.9 60.5,35.1 60.5,-15.5 43.3,6.3 		"/>
		<polygon class="st0" points="33.1,-2.7 43.3,-15.5 26,-15.5 15.8,-2.7 15.8,14 -1.1,14 -11.3,26.9 -11.3,56.7 6,56.7 6,56.6 
			16.1,43.8 6,43.8 6,26.9 5.9,26.9 15.8,14.4 15.8,27.1 33.1,27.1 33.1,27.2 43.3,14.3 33.1,14.3 		"/>
	</g>
</g>
</svg>
